 http://imgr.us/images/664gm67ol2ek0rkmwli.jpg

Info:
Format : MPEG-PS
File size : 683 MiB
Duration : 2h 7mn
Overall bit rate : 750 Kbps

Video
ID : 224 (0xE0)
Format : MPEG Video
Format version : Version 2
Format profile : Main@Main
Format settings, BVOP : Yes
Format settings, Matrix : Default
Duration : 2h 7mn
Bit rate mode : Variable
Bit rate : 607 Kbps
Maximum bit rate : 9 672 Kbps
Width : 352 pixels
Height : 288 pixels
Display aspect ratio : 4:3
Frame rate : 25.000 fps
Standard : PAL
Color space : YUV
Chroma subsampling : 4:2:0
Bit depth : 8 bits
Scan type : Progressive
Compression mode : Lossy
Bits/(Pixel*Frame) : 0.239
Stream size : 553 MiB (81%)



Audio
ID : 192 (0xC0)
Format : MPEG Audio
Format version : Version 1
Format profile : Layer 2
Duration : 2h 7mn
Bit rate mode : Constant
Bit rate : 128 Kbps
Channel(s) : 2 channels
Sampling rate : 48.0 KHz
Compression mode : Lossy
Delay relative to video : 33ms
Stream size : 117 MiB (17%)



Screens: 
http://imgr.us/images/ozfq26jdhnvv3cs4vlx.png 
http://imgr.us/images/0y93gzs5wq467oeqcqh7.png 
http://imgr.us/images/9lwhte3afcylgtdoc19q.png 
http://imgr.us/images/lfjh0tg7a3yj6lx9lqls.png